<!DOCTYPE svg PUBLIC "-//W3C//DTD SVG 1.1//EN" "http://www.w3.org/Graphics/SVG/1.1/DTD/svg11.dtd">

<!-- Uploaded to: SVG Repo, www.svgrepo.com, Transformed by: SVG Repo Mixer Tools -->
<svg height="48px" width="48px" version="1.1" id="Layer_1" xmlns="http://www.w3.org/2000/svg" xmlns:xlink="http://www.w3.org/1999/xlink" viewBox="-75.41 -75.41 653.53 653.53" xml:space="preserve" fill="#000000" transform="matrix(-1, 0, 0, 1, 0, 0)rotate(0)">

<g id="SVGRepo_bgCarrier" stroke-width="0" transform="translate(0,0), scale(1)">

<rect x="-75.41" y="-75.41" width="653.53" height="653.53" rx="65.353" fill="#868b8d" strokewidth="0"/>

</g>

<g id="SVGRepo_tracerCarrier" stroke-linecap="round" stroke-linejoin="round"/>

<g id="SVGRepo_iconCarrier"> <g> <path style="fill:#ffffff;" d="M425.361,0l14.118,12.988c5.997,5.517,58.712,55.2,62.858,100.185 c3.448,37.417-17.99,83.13-36.582,114.89c-25.499,43.561-61.822,89.43-105.041,132.649L256.85,256.848l74.225-74.224 l-44.169-44.169L425.361,0z"/> <path style="fill:#ffffff;" d="M182.626,331.072l74.224-74.223l103.864,103.864c-86.254,86.253-180.157,141.989-239.229,141.995 c-2.835,0-5.627-0.125-8.31-0.372c-44.985-4.148-94.668-56.862-100.186-62.858L0.002,425.358l138.456-138.456L182.626,331.072z"/> </g> </g>

</svg>